# xmcd CD database file
#
# Track frame offsets:
#	150
#	18360
#	42412
#	60660
#
# Disc length: 1129 seconds
#
# Revision: 0
# Processed by: cddbd v1.5PL3 Copyright (c) Steve Scherf et al.
# Submitted via: CDex 1.50beta9
#
DISCID=2c046704
DTITLE=松田博幸 - 君の素敵にＨＡＬＬＥＬＵＪＡＨ
DYEAR=1992
DGENRE=J-POP
TTITLE0=君の素敵にＨＡＬＬＥＬＵＪＡＨ
TTITLE1=ＴＯＤＡＹ-手のひらのＸ’ｍａｓ　Ｅｖｅ-　Single　Mix
TTITLE2=君の素敵にＨＡＬＬＥＬＵＪＡＨ　カラオケ
TTITLE3=ＴＯＤＡＹ-手のひらのＸ’ｍａｓ　Ｅｖｅ-　カラオケ
EXTD=YEAR: 1992
EXTT0=
EXTT1=
EXTT2=
EXTT3=
PLAYORDER=
